<?xml version="1.0" encoding="UTF-8"?>
<svg xmlns="http://www.w3.org/2000/svg" xmlns:xlink="http://www.w3.org/1999/xlink" width="250pt" height="180pt" viewBox="0 0 250 180" version="1.1">
<g id="surface1">
<path style=" stroke:none;fill-rule:nonzero;fill:rgb(0%,0%,0%);fill-opacity:1;" d="M 81.121094 41.308594 C 79.371094 41.671875 78.125 42.390625 78.125 42.839844 C 79.125 48.238281 92.976562 85.5 94.097656 85.5 C 95.347656 85.410156 126.296875 50.578125 127.046875 48.238281 C 127.546875 46.800781 119.683594 43.738281 111.195312 41.941406 C 104.207031 40.5 86.859375 40.140625 81.121094 41.308594 Z M 115.191406 44.910156 C 122.304688 46.890625 124.925781 48.871094 122.804688 50.398438 C 122.179688 50.851562 117.5625 50.128906 112.445312 48.960938 C 105.332031 47.160156 100.714844 46.710938 92.226562 46.710938 C 82.242188 46.710938 81.121094 46.53125 81.121094 45 C 81.121094 42.570312 82.867188 42.300781 96.097656 42.660156 C 104.707031 42.839844 109.949219 43.46875 115.191406 44.910156 Z M 113.941406 51.121094 L 120.058594 53.101562 L 117.1875 56.609375 C 114.691406 59.851562 114.066406 60.121094 110.449219 59.671875 C 103.585938 58.859375 100.214844 63.089844 104.332031 67.320312 C 106.203125 69.210938 105.957031 69.660156 100.839844 75.601562 C 97.84375 79.019531 95.097656 81.808594 94.597656 81.898438 C 92.601562 81.898438 93.726562 77.761719 96.097656 76.230469 C 97.46875 75.421875 98.59375 74.160156 98.59375 73.53125 C 98.59375 71.550781 94.972656 68.488281 92.101562 68.21875 C 89.730469 67.949219 88.859375 66.601562 85.988281 58.769531 C 84.117188 53.730469 82.992188 49.320312 83.367188 49.050781 C 83.867188 48.691406 89.605469 48.601562 96.097656 48.78125 C 104.707031 49.050781 109.574219 49.679688 113.941406 51.121094 Z M 111.570312 61.921875 C 112.320312 62.910156 108.824219 66.601562 107.203125 66.601562 C 105.207031 66.601562 104.457031 63.988281 106.082031 62.550781 C 107.828125 61.109375 110.574219 60.75 111.570312 61.921875 Z M 94.722656 71.460938 C 96.347656 72.898438 95.222656 75.871094 93.226562 75.328125 C 91.105469 74.878906 89.730469 70.199219 91.726562 70.199219 C 92.601562 70.199219 93.976562 70.738281 94.722656 71.460938 Z M 94.722656 71.460938 "/>
<path style=" stroke:none;fill-rule:nonzero;fill:rgb(0%,0%,0%);fill-opacity:1;" d="M 89.980469 51.660156 C 87.984375 53.371094 88.734375 57.601562 91.230469 58.769531 C 94.472656 60.210938 99.714844 58.769531 100.589844 56.070312 C 101.089844 54.808594 100.839844 53.101562 100.214844 52.289062 C 98.59375 50.398438 91.976562 49.949219 89.980469 51.660156 Z M 97.96875 54.898438 C 97.96875 56.519531 97.21875 57.238281 95.097656 57.421875 C 92.101562 57.78125 90.355469 55.800781 91.601562 53.460938 C 91.976562 52.648438 93.476562 52.199219 95.097656 52.378906 C 97.21875 52.558594 97.96875 53.28125 97.96875 54.898438 Z M 97.96875 54.898438 "/>
<path style=" stroke:none;fill-rule:nonzero;fill:rgb(0%,0%,0%);fill-opacity:1;" d="M 171.601562 42.03125 C 170.226562 42.210938 168.605469 42.75 168.105469 43.199219 C 167.234375 43.738281 181.460938 86.128906 182.707031 87.121094 C 183.457031 87.570312 185.578125 85.230469 201.425781 67.050781 C 219.523438 46.53125 219.273438 47.96875 204.921875 44.011719 C 197.808594 42.121094 177.464844 40.859375 171.601562 42.03125 Z M 205.671875 46.351562 C 213.65625 48.960938 214.03125 49.140625 212.285156 51.121094 C 211.535156 52.019531 209.414062 51.839844 201.800781 49.949219 C 194.6875 48.238281 189.820312 47.699219 181.835938 47.699219 C 172.472656 47.699219 171.226562 47.519531 170.601562 45.988281 C 169.726562 43.558594 171.851562 43.289062 185.953125 43.558594 C 195.8125 43.738281 199.179688 44.28125 205.671875 46.351562 Z M 203.175781 52.289062 L 209.789062 54.449219 L 206.542969 57.871094 C 203.921875 60.570312 202.800781 61.109375 200.429688 60.660156 C 195.9375 59.851562 192.191406 61.738281 192.191406 64.710938 C 192.191406 66.148438 193.066406 67.769531 194.066406 68.398438 C 196.1875 69.660156 195.8125 70.109375 188.699219 78.210938 C 184.578125 82.890625 184.207031 83.070312 183.082031 81.179688 C 181.957031 79.46875 182.332031 78.839844 184.578125 77.761719 C 186.578125 76.679688 187.199219 75.601562 186.949219 73.53125 C 186.703125 71.191406 185.828125 70.46875 182.582031 69.839844 C 178.839844 69.03125 178.464844 68.578125 175.46875 59.941406 C 173.847656 54.988281 172.722656 50.578125 173.097656 50.128906 C 173.472656 49.679688 178.964844 49.5 185.203125 49.679688 C 193.816406 49.949219 198.183594 50.578125 203.175781 52.289062 Z M 200.304688 63 C 201.179688 64.078125 198.808594 67.5 197.058594 67.5 C 195.4375 67.5 194.3125 65.070312 195.1875 63.449219 C 195.9375 61.921875 199.179688 61.648438 200.304688 63 Z M 182.707031 71.640625 C 184.953125 72.269531 185.328125 75.148438 183.332031 76.050781 C 181.710938 76.859375 181.335938 76.589844 180.335938 73.53125 C 179.339844 70.921875 179.585938 70.738281 182.707031 71.640625 Z M 182.707031 71.640625 "/>
<path style=" stroke:none;fill-rule:nonzero;fill:rgb(0%,0%,0%);fill-opacity:1;" d="M 179.710938 53.101562 C 178.339844 54.089844 177.214844 55.53125 177.214844 56.25 C 177.214844 56.96875 178.339844 58.410156 179.710938 59.398438 C 181.085938 60.390625 183.082031 61.199219 184.082031 61.199219 C 185.078125 61.199219 187.074219 60.390625 188.449219 59.398438 C 189.820312 58.410156 190.945312 56.96875 190.945312 56.25 C 190.945312 55.53125 189.820312 54.089844 188.449219 53.101562 C 187.074219 52.109375 185.078125 51.300781 184.082031 51.300781 C 183.082031 51.300781 181.085938 52.109375 179.710938 53.101562 Z M 187.699219 55.078125 C 188.699219 56.339844 188.574219 56.96875 186.949219 58.140625 C 183.207031 60.839844 177.589844 57.328125 180.960938 54.359375 C 182.957031 52.738281 185.828125 53.011719 187.699219 55.078125 Z M 187.699219 55.078125 "/>
<path style=" stroke:none;fill-rule:nonzero;fill:rgb(0%,0%,0%);fill-opacity:1;" d="M 53.164062 45.089844 C 52.167969 46.800781 47.050781 56.25 41.808594 66.058594 C 30.949219 86.488281 30.824219 85.320312 43.679688 87.300781 C 53.664062 88.828125 67.765625 88.019531 76.003906 85.5 C 79.496094 84.328125 82.367188 83.160156 82.367188 82.890625 C 82.367188 81.898438 57.285156 43.738281 56.035156 42.839844 C 55.410156 42.300781 54.289062 43.199219 53.164062 45.089844 Z M 56.660156 51.390625 C 54.539062 53.101562 54.414062 56.878906 56.410156 58.320312 C 57.285156 58.949219 59.40625 59.398438 61.152344 59.398438 C 64.023438 59.398438 65.144531 60.390625 70.261719 68.128906 L 76.253906 76.949219 L 72.132812 78.210938 C 63.523438 80.730469 38.6875 80.28125 38.6875 77.488281 C 38.6875 77.039062 39.5625 75.238281 40.683594 73.351562 C 42.058594 70.921875 43.054688 70.199219 44.554688 70.558594 C 50.542969 72.269531 55.285156 64.621094 49.921875 62.011719 C 47.425781 60.75 47.425781 60.660156 51.417969 53.28125 C 55.160156 46.261719 55.535156 45.988281 56.910156 47.878906 C 58.15625 49.589844 58.15625 50.21875 56.660156 51.390625 Z M 62.398438 56.429688 C 62.398438 58.050781 58.78125 57.871094 57.90625 56.25 C 57.40625 55.53125 57.53125 54.179688 58.03125 53.28125 C 58.78125 51.839844 58.90625 51.839844 60.652344 53.460938 C 61.652344 54.449219 62.398438 55.800781 62.398438 56.429688 Z M 49.671875 65.429688 C 50.167969 67.589844 47.300781 69.480469 45.175781 68.488281 C 43.929688 67.949219 43.929688 67.140625 44.929688 65.339844 C 46.300781 62.550781 49.046875 62.640625 49.671875 65.429688 Z M 78 81.359375 C 78 84.058594 69.761719 85.769531 56.160156 85.859375 C 41.933594 85.949219 34.820312 84.511719 35.816406 81.808594 C 36.441406 80.28125 37.191406 80.011719 39.8125 80.550781 C 47.550781 81.898438 61.902344 81.988281 68.015625 80.730469 C 75.878906 79.109375 78 79.199219 78 81.359375 Z M 78 81.359375 "/>
<path style=" stroke:none;fill-rule:nonzero;fill:rgb(0%,0%,0%);fill-opacity:1;" d="M 57.160156 70.648438 C 55.035156 74.070312 57.53125 77.398438 62.398438 77.398438 C 65.019531 77.398438 66.644531 76.679688 68.140625 75.148438 C 70.011719 73.078125 70.011719 72.71875 68.140625 70.648438 C 66.644531 69.121094 65.019531 68.398438 62.398438 68.398438 C 59.53125 68.398438 58.28125 68.941406 57.160156 70.648438 Z M 65.519531 72.898438 C 65.519531 74.519531 64.769531 75.238281 62.648438 75.421875 C 59.65625 75.78125 57.90625 73.800781 59.15625 71.460938 C 59.53125 70.648438 61.027344 70.199219 62.648438 70.378906 C 64.769531 70.558594 65.519531 71.28125 65.519531 72.898438 Z M 65.519531 72.898438 "/>
<path style=" stroke:none;fill-rule:nonzero;fill:rgb(0%,0%,0%);fill-opacity:1;" d="M 133.160156 63.449219 C 127.171875 74.519531 122.304688 84.238281 122.304688 84.960938 C 122.304688 87.210938 137.03125 89.460938 148.886719 88.921875 C 158.746094 88.46875 172.847656 85.320312 171.976562 83.699219 C 169.230469 78.839844 145.390625 43.199219 144.769531 43.199219 C 144.394531 43.199219 139.152344 52.289062 133.160156 63.449219 Z M 145.515625 52.648438 C 141.398438 55.710938 144.394531 60.300781 150.757812 60.300781 C 153.753906 60.390625 154.753906 61.289062 159.621094 68.761719 C 162.613281 73.441406 164.738281 77.578125 164.238281 78.121094 C 162.117188 80.640625 141.273438 81.898438 132.039062 80.101562 L 127.421875 79.109375 L 129.542969 75.148438 C 131.164062 71.910156 132.039062 71.191406 133.910156 71.640625 C 137.03125 72.359375 142.273438 69.660156 142.273438 67.320312 C 142.273438 66.238281 141.023438 64.441406 139.652344 63.359375 L 136.90625 61.289062 L 139.777344 56.070312 C 141.398438 53.191406 143.269531 50.039062 143.894531 49.050781 C 145.144531 47.339844 145.144531 47.339844 146.390625 49.230469 C 147.265625 50.671875 147.140625 51.570312 145.515625 52.648438 Z M 150.757812 55.351562 C 152.628906 58.320312 152.628906 58.5 150.507812 58.5 C 148.011719 58.5 145.890625 56.25 146.765625 54.539062 C 147.886719 52.46875 149.136719 52.738281 150.757812 55.351562 Z M 139.777344 67.050781 C 139.777344 68.941406 136.15625 70.648438 134.535156 69.480469 C 133.410156 68.671875 133.535156 67.859375 134.660156 66.058594 C 135.78125 64.171875 136.40625 63.898438 137.90625 64.800781 C 138.902344 65.429688 139.777344 66.421875 139.777344 67.050781 Z M 167.730469 81.628906 C 168.855469 83.699219 167.605469 84.328125 159.121094 85.859375 C 150.507812 87.480469 139.027344 87.570312 131.164062 86.128906 C 125.300781 84.960938 124.175781 84.058594 125.921875 82.078125 C 126.671875 81.089844 127.921875 81.089844 131.789062 81.808594 C 138.277344 83.160156 153.003906 82.980469 159.121094 81.449219 C 165.984375 79.828125 166.859375 79.828125 167.730469 81.628906 Z M 167.730469 81.628906 "/>
<path style=" stroke:none;fill-rule:nonzero;fill:rgb(0%,0%,0%);fill-opacity:1;" d="M 147.886719 71.101562 C 146.015625 72.539062 145.765625 73.441406 146.765625 75.421875 C 148.011719 78.03125 150.632812 78.75 155.375 77.941406 C 159.246094 77.21875 160.492188 74.25 157.996094 71.550781 C 155.5 68.761719 151.007812 68.671875 147.886719 71.101562 Z M 155.875 72.359375 C 157.996094 74.160156 156.125 76.5 152.753906 76.5 C 149.136719 76.5 147.640625 74.339844 149.761719 72.449219 C 151.757812 70.738281 154.003906 70.738281 155.875 72.359375 Z M 155.875 72.359375 "/>
<path style=" stroke:none;fill-rule:nonzero;fill:rgb(0%,0%,0%);fill-opacity:1;" d="M 68.390625 96.929688 C 99.589844 97.109375 150.136719 97.109375 180.710938 96.929688 C 211.410156 96.839844 185.953125 96.75 124.175781 96.75 C 62.398438 96.75 37.316406 96.839844 68.390625 96.929688 Z M 68.390625 96.929688 "/>
<path style=" stroke:none;fill-rule:nonzero;fill:rgb(0%,0%,0%);fill-opacity:1;" d="M 149.261719 107.730469 C 147.886719 108.71875 148.511719 109.800781 150.382812 109.800781 C 151.382812 109.800781 152.257812 109.441406 152.257812 108.988281 C 152.257812 107.820312 150.257812 107.011719 149.261719 107.730469 Z M 149.261719 107.730469 "/>
<path style=" stroke:none;fill-rule:nonzero;fill:rgb(0%,0%,0%);fill-opacity:1;" d="M 165.609375 107.730469 C 164.238281 108.71875 164.613281 126 165.984375 126 C 166.734375 126 167.234375 124.558594 167.234375 122.851562 C 167.234375 120.421875 167.730469 119.699219 169.605469 119.699219 C 170.851562 119.699219 173.347656 118.890625 175.21875 117.808594 C 179.214844 115.558594 179.710938 110.878906 176.21875 108.628906 C 173.972656 107.101562 167.109375 106.558594 165.609375 107.730469 Z M 173.347656 110.160156 C 175.84375 112.320312 174.472656 116.371094 170.976562 117.628906 C 167.980469 118.710938 167.855469 118.710938 167.480469 115.109375 C 167.234375 113.039062 167.355469 110.789062 167.730469 110.160156 C 168.605469 108.539062 171.476562 108.539062 173.347656 110.160156 Z M 173.347656 110.160156 "/>
<path style=" stroke:none;fill-rule:nonzero;fill:rgb(0%,0%,0%);fill-opacity:1;" d="M 181.710938 107.730469 C 180.335938 108.71875 180.960938 109.800781 182.832031 109.800781 C 183.832031 109.800781 184.703125 109.441406 184.703125 108.988281 C 184.703125 107.820312 182.707031 107.011719 181.710938 107.730469 Z M 181.710938 107.730469 "/>
<path style=" stroke:none;fill-rule:nonzero;fill:rgb(0%,0%,0%);fill-opacity:1;" d="M 18.71875 108.898438 C 18.71875 109.351562 19.59375 109.800781 20.59375 109.800781 C 22.089844 109.800781 22.464844 111.328125 22.464844 117.898438 C 22.464844 122.671875 22.964844 126 23.710938 126 C 24.460938 126 24.960938 122.671875 24.960938 117.898438 C 24.960938 110.429688 25.085938 109.800781 27.457031 109.800781 C 28.828125 109.800781 29.953125 109.351562 29.953125 108.898438 C 29.953125 108.359375 27.457031 108 24.335938 108 C 21.214844 108 18.71875 108.359375 18.71875 108.898438 Z M 18.71875 108.898438 "/>
<path style=" stroke:none;fill-rule:nonzero;fill:rgb(0%,0%,0%);fill-opacity:1;" d="M 32.449219 116.550781 C 32.449219 121.230469 32.949219 125.101562 33.570312 125.101562 C 34.195312 125.101562 35.691406 122.851562 36.941406 120.058594 C 39.1875 115.378906 41.558594 113.578125 42.058594 116.28125 C 42.183594 116.910156 42.683594 119.339844 43.054688 121.769531 C 43.429688 124.109375 44.304688 125.820312 44.929688 125.550781 C 46.050781 125.101562 45.675781 119.609375 44.179688 114.480469 C 43.429688 111.78125 40.683594 111.960938 37.566406 114.929688 L 35.070312 117.449219 L 34.945312 112.679688 C 34.945312 110.160156 34.445312 108 33.695312 108 C 32.949219 108 32.449219 111.421875 32.449219 116.550781 Z M 32.449219 116.550781 "/>
<path style=" stroke:none;fill-rule:nonzero;fill:rgb(0%,0%,0%);fill-opacity:1;" d="M 72.382812 108.449219 C 72.382812 108.71875 73.757812 111.421875 75.503906 114.480469 C 77.25 117.539062 78.625 121.320312 78.625 123.03125 C 78.625 124.648438 79.25 126 79.871094 126 C 80.621094 126 81.121094 124.648438 81.121094 123.03125 C 81.121094 121.410156 82.492188 117.449219 84.238281 114.300781 C 87.859375 107.550781 87.859375 108 85.488281 108 C 84.363281 108 83.117188 109.53125 82.242188 112.050781 C 80.871094 116.011719 78.625 118.351562 78.625 115.921875 C 78.625 112.949219 75.878906 108 74.257812 108 C 73.257812 108 72.382812 108.179688 72.382812 108.449219 Z M 72.382812 108.449219 "/>
<path style=" stroke:none;fill-rule:nonzero;fill:rgb(0%,0%,0%);fill-opacity:1;" d="M 50.417969 113.488281 C 45.800781 117.179688 48.921875 126 54.914062 126 C 57.78125 126 63.273438 122.761719 62.152344 121.859375 C 61.527344 121.5 60.027344 121.949219 58.53125 122.851562 C 55.535156 124.921875 52.042969 123.839844 51.417969 120.691406 C 51.042969 118.980469 51.542969 118.800781 56.660156 118.800781 C 63.023438 118.800781 64.398438 117.898438 62.273438 115.019531 C 59.40625 111.058594 54.289062 110.429688 50.417969 113.488281 Z M 58.40625 114.480469 C 60.902344 116.28125 60.152344 117 55.535156 117 C 53.164062 117 51.167969 116.640625 51.167969 116.28125 C 51.167969 115.199219 53.914062 113.398438 55.535156 113.398438 C 56.285156 113.398438 57.53125 113.851562 58.40625 114.480469 Z M 58.40625 114.480469 "/>
<path style=" stroke:none;fill-rule:nonzero;fill:rgb(0%,0%,0%);fill-opacity:1;" d="M 217.902344 113.039062 C 215.65625 114.570312 215.28125 116.101562 217.027344 116.101562 C 217.652344 116.101562 218.773438 115.46875 219.648438 114.75 C 221.769531 112.859375 224.265625 113.039062 225.886719 115.109375 C 228.011719 118.078125 227.386719 118.710938 223.019531 118.171875 C 218.402344 117.628906 214.65625 119.519531 214.65625 122.308594 C 214.65625 124.921875 217.777344 126.179688 223.640625 125.730469 L 229.007812 125.371094 L 229.007812 119.789062 C 229.007812 115.289062 228.507812 113.851562 226.511719 112.859375 C 223.390625 111.238281 220.273438 111.238281 217.902344 113.039062 Z M 225.765625 120.960938 C 227.011719 122.039062 226.761719 122.488281 224.765625 123.210938 C 220.023438 125.101562 216.527344 123.839844 218.152344 120.78125 C 218.898438 119.25 224.015625 119.429688 225.765625 120.960938 Z M 225.765625 120.960938 "/>
<path style=" stroke:none;fill-rule:nonzero;fill:rgb(0%,0%,0%);fill-opacity:1;" d="M 88.609375 117.539062 C 88.609375 125.191406 91.355469 127.710938 96.347656 124.46875 C 98.46875 123.121094 98.59375 123.121094 98.59375 124.46875 C 98.59375 125.371094 99.214844 126 99.839844 126 C 100.589844 126 101.089844 123.121094 101.089844 118.980469 C 100.964844 111.960938 99.714844 111.511719 98.09375 117.988281 C 97.71875 119.699219 96.46875 121.949219 95.472656 122.941406 C 92.601562 125.550781 90.855469 122.941406 91.601562 117.179688 C 92.101562 113.488281 91.726562 112.5 90.355469 112.5 C 89.109375 112.5 88.609375 113.761719 88.609375 117.539062 Z M 88.609375 117.539062 "/>
<path style=" stroke:none;fill-rule:nonzero;fill:rgb(0%,0%,0%);fill-opacity:1;" d="M 110.574219 114.480469 C 108.949219 116.101562 108.578125 116.191406 108.578125 114.929688 C 108.578125 114.121094 108.078125 113.398438 107.328125 113.398438 C 106.578125 113.398438 106.082031 115.921875 106.082031 119.25 C 106.082031 125.640625 107.828125 127.078125 108.949219 121.679688 C 109.449219 119.789062 110.574219 117.539062 111.570312 116.550781 C 113.320312 114.929688 113.445312 115.199219 113.566406 120.421875 C 113.566406 124.019531 114.066406 125.910156 114.816406 125.550781 C 115.566406 125.28125 116.0625 123.570312 116.0625 121.859375 C 116.0625 118.441406 117.9375 115.199219 119.808594 115.199219 C 120.558594 115.199219 121.054688 117.449219 121.054688 120.148438 C 121.054688 122.851562 121.679688 125.101562 122.304688 125.101562 C 123.054688 125.101562 123.550781 122.671875 123.550781 119.699219 C 123.550781 113.941406 121.679688 112.050781 118.0625 114.210938 C 116.8125 115.019531 116.1875 114.929688 115.566406 113.851562 C 114.566406 111.960938 112.820312 112.140625 110.574219 114.480469 Z M 110.574219 114.480469 "/>
<path style=" stroke:none;fill-rule:nonzero;fill:rgb(0%,0%,0%);fill-opacity:1;" d="M 131.789062 114.480469 C 130.167969 116.101562 129.792969 116.191406 129.792969 114.929688 C 129.792969 114.121094 129.292969 113.398438 128.542969 113.398438 C 127.796875 113.398438 127.296875 115.921875 127.296875 119.25 C 127.296875 125.730469 129.167969 127.078125 130.417969 121.589844 C 130.789062 119.609375 131.914062 117.359375 132.914062 116.460938 C 134.285156 115.019531 134.535156 115.109375 135.285156 117.628906 C 135.78125 119.160156 135.78125 121.5 135.285156 122.851562 C 134.660156 124.738281 134.785156 125.28125 136.15625 124.921875 C 137.15625 124.738281 138.027344 123.300781 138.277344 121.859375 C 139.277344 113.941406 142.273438 112.589844 142.273438 120.148438 C 142.273438 122.851562 142.894531 125.101562 143.519531 125.101562 C 144.269531 125.101562 144.769531 122.671875 144.769531 119.699219 C 144.769531 113.941406 142.894531 112.050781 139.277344 114.210938 C 138.027344 115.019531 137.40625 114.929688 136.78125 113.851562 C 135.78125 111.960938 134.035156 112.140625 131.789062 114.480469 Z M 131.789062 114.480469 "/>
<path style=" stroke:none;fill-rule:nonzero;fill:rgb(0%,0%,0%);fill-opacity:1;" d="M 149.011719 113.851562 C 148.511719 114.570312 148.636719 117.539062 149.136719 120.328125 C 150.136719 126.539062 152.257812 125.101562 152.257812 118.171875 C 152.257812 113.578125 150.382812 111.058594 149.011719 113.851562 Z M 149.011719 113.851562 "/>
<path style=" stroke:none;fill-rule:nonzero;fill:rgb(0%,0%,0%);fill-opacity:1;" d="M 180.960938 118.800781 C 180.960938 122.398438 181.460938 125.101562 182.207031 125.101562 C 182.957031 125.101562 183.457031 122.398438 183.457031 118.800781 C 183.457031 115.199219 182.957031 112.5 182.207031 112.5 C 181.460938 112.5 180.960938 115.199219 180.960938 118.800781 Z M 180.960938 118.800781 "/>
<path style=" stroke:none;fill-rule:nonzero;fill:rgb(0%,0%,0%);fill-opacity:1;" d="M 187.199219 113.308594 C 187.199219 113.851562 189.199219 114.300781 191.691406 114.480469 L 196.0625 114.75 L 191.691406 119.25 C 185.703125 125.28125 185.828125 126 193.441406 126 C 196.933594 126 199.679688 125.550781 199.679688 125.101562 C 199.679688 124.558594 197.683594 124.199219 195.3125 124.199219 C 192.941406 124.199219 190.945312 123.929688 190.945312 123.660156 C 190.945312 123.300781 192.941406 121.050781 195.3125 118.710938 C 197.683594 116.28125 199.679688 113.851562 199.679688 113.398438 C 199.679688 112.859375 196.933594 112.5 193.441406 112.5 C 190.070312 112.5 187.199219 112.859375 187.199219 113.308594 Z M 187.199219 113.308594 "/>
<path style=" stroke:none;fill-rule:nonzero;fill:rgb(0%,0%,0%);fill-opacity:1;" d="M 201.550781 113.398438 C 201.054688 113.941406 202.550781 114.300781 205.171875 114.300781 C 207.667969 114.300781 209.664062 114.570312 209.664062 114.839844 C 209.664062 115.109375 207.667969 117.179688 205.296875 119.429688 C 199.304688 125.101562 199.554688 126 207.167969 126 C 210.664062 126 213.410156 125.550781 213.410156 125.101562 C 213.410156 124.558594 211.410156 124.199219 209.039062 124.199219 C 206.667969 124.199219 204.671875 123.929688 204.671875 123.660156 C 204.671875 123.300781 206.667969 121.050781 209.039062 118.710938 C 211.410156 116.28125 213.410156 113.851562 213.410156 113.398438 C 213.410156 112.230469 202.550781 112.230469 201.550781 113.398438 Z M 201.550781 113.398438 "/>
<path style=" stroke:none;fill-rule:nonzero;fill:rgb(0%,0%,0%);fill-opacity:1;" d="M 217.402344 135.449219 C 215.28125 138.78125 215.65625 139.5 217.902344 136.53125 C 219.023438 135.089844 219.648438 133.738281 219.273438 133.558594 C 219.023438 133.378906 218.152344 134.191406 217.402344 135.449219 Z M 217.402344 135.449219 "/>
<path style=" stroke:none;fill-rule:nonzero;fill:rgb(0%,0%,0%);fill-opacity:1;" d="M 191.445312 136.351562 C 191.070312 137.070312 190.945312 138.148438 191.195312 138.78125 C 191.570312 139.410156 192.066406 138.871094 192.441406 137.429688 C 193.191406 134.820312 192.566406 134.191406 191.445312 136.351562 Z M 191.445312 136.351562 "/>
<path style=" stroke:none;fill-rule:nonzero;fill:rgb(0%,0%,0%);fill-opacity:1;" d="M 197.933594 136.351562 C 196.808594 138.691406 197.058594 139.230469 198.558594 137.429688 C 199.304688 136.53125 199.679688 135.539062 199.304688 135.359375 C 199.054688 135.089844 198.433594 135.539062 197.933594 136.351562 Z M 197.933594 136.351562 "/>
<path style=" stroke:none;fill-rule:nonzero;fill:rgb(0%,0%,0%);fill-opacity:1;" d="M 234.125 136.351562 C 233.75 137.160156 233.375 138.328125 233.5 138.871094 C 233.5 139.5 234.125 138.960938 234.75 137.789062 C 235.375 136.621094 235.746094 135.449219 235.375 135.269531 C 235.125 135.089844 234.625 135.539062 234.125 136.351562 Z M 234.125 136.351562 "/>
<path style=" stroke:none;fill-rule:nonzero;fill:rgb(0%,0%,0%);fill-opacity:1;" d="M 169.851562 136.980469 C 169.726562 138.78125 171.601562 139.140625 172.972656 137.519531 C 173.472656 136.980469 173.347656 136.800781 172.472656 137.160156 C 171.851562 137.429688 170.851562 137.160156 170.601562 136.621094 C 170.226562 135.898438 169.851562 136.078125 169.851562 136.980469 Z M 169.851562 136.980469 "/>
<path style=" stroke:none;fill-rule:nonzero;fill:rgb(0%,0%,0%);fill-opacity:1;" d="M 175.21875 137.160156 C 175.34375 137.878906 175.84375 138.78125 176.21875 139.140625 C 176.71875 139.410156 176.84375 139.050781 176.71875 138.238281 C 176.59375 137.519531 176.09375 136.621094 175.71875 136.261719 C 175.21875 135.988281 175.09375 136.351562 175.21875 137.160156 Z M 175.21875 137.160156 "/>
<path style=" stroke:none;fill-rule:nonzero;fill:rgb(0%,0%,0%);fill-opacity:1;" d="M 178.839844 137.25 C 178.464844 138.058594 178.464844 138.871094 178.714844 139.140625 C 179.089844 139.410156 179.710938 138.78125 180.085938 137.699219 C 180.835938 135.628906 179.960938 135.269531 178.839844 137.25 Z M 178.839844 137.25 "/>
<path style=" stroke:none;fill-rule:nonzero;fill:rgb(0%,0%,0%);fill-opacity:1;" d="M 181.835938 137.160156 C 181.335938 138.148438 181.210938 139.050781 181.585938 139.320312 C 181.957031 139.589844 182.207031 139.320312 182.207031 138.691406 C 182.207031 138.058594 182.707031 137.789062 183.332031 138.148438 C 183.957031 138.421875 184.953125 138.148438 185.453125 137.609375 C 185.953125 136.980469 185.828125 136.800781 184.953125 137.160156 C 184.328125 137.429688 183.457031 137.25 183.207031 136.621094 C 182.832031 135.988281 182.332031 136.171875 181.835938 137.160156 Z M 181.835938 137.160156 "/>
<path style=" stroke:none;fill-rule:nonzero;fill:rgb(0%,0%,0%);fill-opacity:1;" d="M 187.574219 137.789062 C 187.324219 139.859375 187.949219 140.039062 188.824219 138.148438 C 189.320312 137.429688 189.199219 136.710938 188.699219 136.441406 C 188.199219 136.171875 187.574219 136.800781 187.574219 137.789062 Z M 187.574219 137.789062 "/>
<path style=" stroke:none;fill-rule:nonzero;fill:rgb(0%,0%,0%);fill-opacity:1;" d="M 200.429688 137.429688 C 199.679688 138.691406 199.804688 138.78125 201.054688 137.96875 C 201.925781 137.339844 202.300781 136.621094 201.925781 136.351562 C 201.550781 136.078125 200.804688 136.53125 200.429688 137.429688 Z M 200.429688 137.429688 "/>
<path style=" stroke:none;fill-rule:nonzero;fill:rgb(0%,0%,0%);fill-opacity:1;" d="M 228.011719 137.789062 C 228.507812 138.960938 229.007812 139.410156 229.382812 138.691406 C 229.632812 138.058594 229.257812 137.070312 228.632812 136.621094 C 227.636719 135.898438 227.511719 136.261719 228.011719 137.789062 Z M 228.011719 137.789062 "/>
<path style=" stroke:none;fill-rule:nonzero;fill:rgb(0%,0%,0%);fill-opacity:1;" d="M 204.171875 139.949219 C 203.550781 141.121094 191.320312 141.300781 107.703125 141.570312 C 13.601562 141.75 13.851562 141.75 124.175781 141.75 C 185.953125 141.839844 229.382812 141.660156 220.648438 141.570312 C 207.292969 141.300781 204.921875 141.03125 205.421875 139.949219 C 205.921875 139.230469 205.921875 138.601562 205.546875 138.601562 C 205.171875 138.601562 204.671875 139.230469 204.171875 139.949219 Z M 204.171875 139.949219 "/>
</g>
</svg>
