<?xml version="1.0" standalone="no"?>
<!DOCTYPE svg PUBLIC "-//W3C//DTD SVG 20010904//EN"
 "http://www.w3.org/TR/2001/REC-SVG-20010904/DTD/svg10.dtd">
<svg version="1.0" xmlns="http://www.w3.org/2000/svg"
 width="200.000000pt" height="200.000000pt" viewBox="0 0 200.000000 200.000000"
 preserveAspectRatio="xMidYMid meet">

<g transform="translate(0.000000,200.000000) scale(0.100000,-0.100000)"
fill="#000000" stroke="none">
<path d="M650 1541 c-14 -4 -24 -12 -24 -17 8 -60 119 -474 128 -474 10 1 258
388 264 414 4 16 -59 50 -127 70 -56 16 -195 20 -241 7z m273 -40 c57 -22 78
-44 61 -61 -5 -5 -42 3 -83 16 -57 20 -94 25 -162 25 -80 0 -89 2 -89 19 0 27
14 30 120 26 69 -2 111 -9 153 -25z m-10 -69 l49 -22 -23 -39 c-20 -36 -25
-39 -54 -34 -55 9 -82 -38 -49 -85 15 -21 13 -26 -28 -92 -24 -38 -46 -69 -50
-70 -16 0 -7 46 12 63 11 9 20 23 20 30 0 22 -29 56 -52 59 -19 3 -26 18 -49
105 -15 56 -24 105 -21 108 4 4 50 5 102 3 69 -3 108 -10 143 -26z m-19 -120
c6 -11 -22 -52 -35 -52 -16 0 -22 29 -9 45 14 16 36 20 44 7z m-135 -106 c13
-16 4 -49 -12 -43 -17 5 -28 57 -12 57 7 0 18 -6 24 -14z"/>
<path d="M721 1426 c-16 -19 -10 -66 10 -79 26 -16 68 0 75 30 4 14 2 33 -3
42 -13 21 -66 26 -82 7z m64 -36 c0 -18 -6 -26 -23 -28 -24 -4 -38 18 -28 44
3 9 15 14 28 12 17 -2 23 -10 23 -28z"/>
<path d="M1375 1533 c-11 -2 -24 -8 -28 -13 -7 -6 107 -477 117 -488 6 -5 23
21 150 223 145 228 143 212 28 256 -57 21 -220 35 -267 22z m273 -48 c64 -29
67 -31 53 -53 -6 -10 -23 -8 -84 13 -57 19 -96 25 -160 25 -75 0 -85 2 -90 19
-7 27 10 30 123 27 79 -2 106 -8 158 -31z m-20 -66 l53 -24 -26 -38 c-21 -30
-30 -36 -49 -31 -36 9 -66 -12 -66 -45 0 -16 7 -34 15 -41 17 -14 14 -19 -43
-109 -33 -52 -36 -54 -45 -33 -9 19 -6 26 12 38 16 12 21 24 19 47 -2 26 -9
34 -35 41 -30 9 -33 14 -57 110 -13 55 -22 104 -19 109 3 5 47 7 97 5 69 -3
104 -10 144 -29z m-23 -119 c7 -12 -12 -50 -26 -50 -13 0 -22 27 -15 45 6 17
32 20 41 5z m-141 -96 c18 -7 21 -39 5 -49 -13 -9 -16 -6 -24 28 -8 29 -6 31
19 21z"/>
<path d="M1440 1410 c-11 -11 -20 -27 -20 -35 0 -8 9 -24 20 -35 11 -11 27
-20 35 -20 8 0 24 9 35 20 11 11 20 27 20 35 0 8 -9 24 -20 35 -11 11 -27 20
-35 20 -8 0 -24 -9 -35 -20z m64 -22 c8 -14 7 -21 -6 -34 -30 -30 -75 9 -48
42 16 18 39 15 54 -8z"/>
<path d="M426 1499 c-8 -19 -49 -124 -91 -233 -87 -227 -88 -214 15 -236 80
-17 193 -8 259 20 28 13 51 26 51 29 0 11 -201 435 -211 445 -5 6 -14 -4 -23
-25z m28 -70 c-17 -19 -18 -61 -2 -77 7 -7 24 -12 38 -12 23 0 32 -11 73 -97
l48 -98 -33 -14 c-69 -28 -268 -23 -268 8 0 5 7 25 16 46 11 27 19 35 31 31
48 -19 86 66 43 95 -20 14 -20 15 12 97 30 78 33 81 44 60 10 -19 10 -26 -2
-39z m46 -56 c0 -18 -29 -16 -36 2 -4 8 -3 23 1 33 6 16 7 16 21 -2 8 -11 14
-26 14 -33z m-102 -100 c4 -24 -19 -45 -36 -34 -10 6 -10 15 -2 35 11 31 33
30 38 -1z m227 -177 c0 -30 -66 -49 -175 -50 -114 -1 -171 15 -163 45 5 17 11
20 32 14 62 -15 177 -16 226 -2 63 18 80 17 80 -7z"/>
<path d="M458 1215 c-17 -38 3 -75 42 -75 21 0 34 8 46 25 15 23 15 27 0 50
-12 17 -25 25 -46 25 -23 0 -33 -6 -42 -25z m67 -25 c0 -18 -6 -26 -23 -28
-24 -4 -38 18 -28 44 3 9 15 14 28 12 17 -2 23 -10 23 -28z"/>
<path d="M1067 1295 c-48 -123 -87 -231 -87 -239 0 -25 118 -50 213 -44 79 5
192 40 185 58 -22 54 -213 450 -218 450 -3 0 -45 -101 -93 -225z m99 120 c-33
-34 -9 -85 42 -85 24 -1 32 -11 71 -94 24 -52 41 -98 37 -104 -17 -28 -184
-42 -258 -22 l-37 11 17 44 c13 36 20 44 35 39 25 -8 67 22 67 48 0 12 -10 32
-21 44 l-22 23 23 58 c13 32 28 67 33 78 10 19 10 19 20 -2 7 -16 6 -26 -7
-38z m42 -30 c15 -33 15 -35 -2 -35 -20 0 -37 25 -30 44 9 23 19 20 32 -9z
m-88 -130 c0 -21 -29 -40 -42 -27 -9 9 -8 18 1 38 9 21 14 24 26 14 8 -7 15
-18 15 -25z m224 -162 c9 -23 -1 -30 -69 -47 -69 -18 -161 -19 -224 -3 -47 13
-56 23 -42 45 6 11 16 11 47 3 52 -15 170 -13 219 4 55 18 62 18 69 -2z"/>
<path d="M1185 1210 c-15 -16 -17 -26 -9 -48 10 -29 31 -37 69 -28 31 8 41 41
21 71 -20 31 -56 32 -81 5z m64 -14 c17 -20 2 -46 -25 -46 -29 0 -41 24 -24
45 16 19 34 19 49 1z"/>
<path d="M548 923 c250 -2 655 -2 900 0 246 1 42 2 -453 2 -495 0 -696 -1
-447 -2z"/>
<path d="M1196 803 c-11 -11 -6 -23 9 -23 8 0 15 4 15 9 0 13 -16 22 -24 14z"/>
<path d="M1327 803 c-11 -11 -8 -203 3 -203 6 0 10 16 10 35 0 27 4 35 19 35
10 0 30 9 45 21 32 25 36 77 8 102 -18 17 -73 23 -85 10z m62 -27 c20 -24 9
-69 -19 -83 -24 -12 -25 -12 -28 28 -2 23 -1 48 2 55 7 18 30 18 45 0z"/>
<path d="M1456 803 c-11 -11 -6 -23 9 -23 8 0 15 4 15 9 0 13 -16 22 -24 14z"/>
<path d="M150 790 c0 -5 7 -10 15 -10 12 0 15 -17 15 -90 0 -53 4 -90 10 -90
6 0 10 37 10 90 0 83 1 90 20 90 11 0 20 5 20 10 0 6 -20 10 -45 10 -25 0 -45
-4 -45 -10z"/>
<path d="M260 705 c0 -52 4 -95 9 -95 5 0 17 25 27 56 18 52 37 72 41 42 1 -7
5 -34 8 -61 3 -26 10 -45 15 -42 9 5 6 66 -6 123 -6 30 -28 28 -53 -5 l-20
-28 -1 53 c0 28 -4 52 -10 52 -6 0 -10 -38 -10 -95z"/>
<path d="M580 795 c0 -3 11 -33 25 -67 14 -34 25 -76 25 -95 0 -18 5 -33 10
-33 6 0 10 15 10 33 0 18 11 62 25 97 29 75 29 70 10 70 -9 0 -19 -17 -26 -45
-11 -44 -29 -70 -29 -43 0 33 -22 88 -35 88 -8 0 -15 -2 -15 -5z"/>
<path d="M404 739 c-37 -41 -12 -139 36 -139 23 0 67 36 58 46 -5 4 -17 -1
-29 -11 -24 -23 -52 -11 -57 24 -3 19 1 21 42 21 51 0 62 10 45 42 -23 44 -64
51 -95 17z m64 -11 c20 -20 14 -28 -23 -28 -19 0 -35 4 -35 8 0 12 22 32 35
32 6 0 16 -5 23 -12z"/>
<path d="M1746 744 c-18 -17 -21 -34 -7 -34 5 0 14 7 21 15 17 21 37 19 50 -4
17 -33 12 -40 -23 -34 -37 6 -67 -15 -67 -46 0 -29 25 -43 72 -38 l43 4 0 62
c0 50 -4 66 -20 77 -25 18 -50 18 -69 -2z m63 -88 c10 -12 8 -17 -8 -25 -38
-21 -66 -7 -53 27 6 17 47 15 61 -2z"/>
<path d="M710 694 c0 -85 22 -113 62 -77 17 15 18 15 18 0 0 -10 5 -17 10 -17
6 0 10 32 10 78 -1 78 -11 83 -24 11 -3 -19 -13 -44 -21 -55 -23 -29 -37 0
-31 64 4 41 1 52 -10 52 -10 0 -14 -14 -14 -56z"/>
<path d="M886 728 c-13 -18 -16 -19 -16 -5 0 9 -4 17 -10 17 -6 0 -10 -28 -10
-65 0 -71 14 -87 23 -27 4 21 13 46 21 57 14 18 15 15 16 -43 0 -40 4 -61 10
-57 6 3 10 22 10 41 0 38 15 74 30 74 6 0 10 -25 10 -55 0 -30 5 -55 10 -55 6
0 10 27 10 60 0 64 -15 85 -44 61 -10 -9 -15 -8 -20 4 -8 21 -22 19 -40 -7z"/>
<path d="M1056 728 c-13 -18 -16 -19 -16 -5 0 9 -4 17 -10 17 -6 0 -10 -28
-10 -65 0 -72 15 -87 25 -26 3 22 12 47 20 57 11 16 13 15 19 -13 4 -17 4 -43
0 -58 -5 -21 -4 -27 7 -23 8 2 15 18 17 34 8 88 32 103 32 19 0 -30 5 -55 10
-55 6 0 10 27 10 60 0 64 -15 85 -44 61 -10 -9 -15 -8 -20 4 -8 21 -22 19 -40
-7z"/>
<path d="M1194 735 c-4 -8 -3 -41 1 -72 8 -69 25 -53 25 24 0 51 -15 79 -26
48z"/>
<path d="M1450 680 c0 -40 4 -70 10 -70 6 0 10 30 10 70 0 40 -4 70 -10 70 -6
0 -10 -30 -10 -70z"/>
<path d="M1500 741 c0 -6 16 -11 36 -13 l35 -3 -35 -50 c-48 -67 -47 -75 14
-75 28 0 50 5 50 10 0 6 -16 10 -35 10 -19 0 -35 3 -35 6 0 4 16 29 35 55 19
27 35 54 35 59 0 6 -22 10 -50 10 -27 0 -50 -4 -50 -9z"/>
<path d="M1615 740 c-4 -6 8 -10 29 -10 20 0 36 -3 36 -6 0 -3 -16 -26 -35
-51 -48 -63 -46 -73 15 -73 28 0 50 5 50 10 0 6 -16 10 -35 10 -19 0 -35 3
-35 6 0 4 16 29 35 55 19 27 35 54 35 59 0 13 -87 13 -95 0z"/>
<path d="M1742 495 c-17 -37 -14 -45 4 -12 9 16 14 31 11 33 -2 2 -9 -7 -15
-21z"/>
<path d="M1534 485 c-3 -8 -4 -20 -2 -27 3 -7 7 -1 10 15 6 29 1 36 -8 12z"/>
<path d="M1586 485 c-9 -26 -7 -32 5 -12 6 10 9 21 6 23 -2 3 -7 -2 -11 -11z"/>
<path d="M1876 485 c-3 -9 -6 -22 -5 -28 0 -7 5 -1 10 12 5 13 8 26 5 28 -2 2
-6 -3 -10 -12z"/>
<path d="M1361 478 c-1 -20 14 -24 25 -6 4 6 3 8 -4 4 -5 -3 -13 0 -15 6 -3 8
-6 6 -6 -4z"/>
<path d="M1404 476 c1 -8 5 -18 8 -22 4 -3 5 1 4 10 -1 8 -5 18 -8 22 -4 3 -5
-1 -4 -10z"/>
<path d="M1433 475 c-3 -9 -3 -18 -1 -21 3 -3 8 4 11 16 6 23 -1 27 -10 5z"/>
<path d="M1457 476 c-4 -11 -5 -21 -2 -24 3 -3 5 0 5 7 0 7 4 10 9 6 5 -3 13
0 17 6 4 7 3 9 -4 5 -5 -3 -12 -1 -14 6 -3 7 -7 5 -11 -6z"/>
<path d="M1503 469 c-2 -23 3 -25 10 -4 4 8 3 16 -1 19 -4 3 -9 -4 -9 -15z"/>
<path d="M1606 473 c-6 -14 -5 -15 5 -6 7 7 10 15 7 18 -3 3 -9 -2 -12 -12z"/>
<path d="M1827 469 c4 -13 8 -18 11 -10 2 7 -1 18 -6 23 -8 8 -9 4 -5 -13z"/>
<path d="M1636 445 c-5 -13 -103 -15 -773 -18 -754 -2 -752 -2 132 -2 495 -1
843 1 773 2 -107 3 -126 6 -122 18 4 8 4 15 1 15 -3 0 -7 -7 -11 -15z"/>
</g>
</svg>
